<svg viewBox="0 0 27 27" fill="none" xmlns="http://www.w3.org/2000/svg">
<circle cx="13.5" cy="13.5" r="13.5" fill="black"/>
<path d="M16.4334 18.4236H10.0896C9.213 18.4236 8.49683 17.7074 8.49683 16.8308V10.487C8.49683 9.61034 9.213 8.89417 10.0896 8.89417H16.4334C17.3101 8.89417 18.0262 9.61034 18.0262 10.487V16.8308C18.0262 17.7113 17.314 18.4236 16.4334 18.4236Z" fill="white"/>
<path d="M13.2635 16.1066C12.6099 16.1066 11.9955 15.8522 11.5337 15.3904C11.0719 14.9286 10.8176 14.3142 10.8176 13.6607C10.8176 13.0071 11.0719 12.3927 11.5337 11.9309C11.9955 11.4691 12.6099 11.2147 13.2635 11.2147C13.9171 11.2147 14.5315 11.4691 14.9933 11.9309C15.4551 12.3927 15.7094 13.0071 15.7094 13.6607C15.7094 14.3142 15.4551 14.9286 14.9933 15.3904C14.5276 15.8522 13.9171 16.1066 13.2635 16.1066ZM13.2635 11.7352C12.2029 11.7352 11.338 12.5962 11.338 13.6607C11.338 14.7212 12.199 15.5861 13.2635 15.5861C14.3241 15.5861 15.1889 14.7251 15.1889 13.6607C15.185 12.6001 14.3241 11.7352 13.2635 11.7352Z" fill="black"/>
<path d="M16.1862 11.1346C16.4456 11.1346 16.6558 10.9243 16.6558 10.6649C16.6558 10.4056 16.4456 10.1953 16.1862 10.1953C15.9268 10.1953 15.7166 10.4056 15.7166 10.6649C15.7166 10.9243 15.9268 11.1346 16.1862 11.1346Z" fill="black"/>
</svg>
