<svg viewBox="0 0 27 27" fill="none" xmlns="http://www.w3.org/2000/svg">
<circle cx="13.5" cy="13.5" r="13.5" fill="black"/>
<path d="M8 17.71C9.07642 17.7725 10.0177 17.513 10.9357 16.8258C10.0084 16.6624 9.36533 16.225 9.01585 15.3216C9.28612 15.2831 9.52377 15.3552 9.80336 15.2399C8.89003 14.8266 8.29823 14.2066 8.27493 13.1349C8.56384 13.1589 8.78286 13.356 9.12768 13.3271C8.28891 12.4813 8.03262 11.5586 8.55918 10.4389C9.43523 11.4769 10.4604 12.1834 11.7139 12.515C11.7838 12.5342 11.849 12.5534 11.9189 12.5678C12.2404 12.6447 12.6226 12.8081 12.8183 12.7841C13.1538 12.7408 12.8183 12.342 12.9021 11.8229C13.1678 10.2082 14.8919 9.4729 16.1687 10.4196C16.5415 10.6984 16.835 10.6936 17.2032 10.5254C17.3942 10.4389 17.5899 10.3524 17.8183 10.2514C17.767 10.7128 17.4222 10.9675 17.1473 11.3087C17.4595 11.3808 17.7111 11.2895 18 11.1934C17.9021 11.525 17.6598 11.7124 17.4408 11.895C17.2125 12.0824 17.124 12.2795 17.1146 12.5871C16.9748 17.2439 11.8444 20.8434 8.33551 17.9792C7.99534 17.7004 8.32619 17.9792 8 17.71Z" fill="white"/>
</svg>
